/* XPM */
static char *close_prelight[] = {
/* columns rows colors chars-per-pixel */
"34 34 29 1 ",
"  c #312E2E",
". c #333030",
"X c #353232",
"o c #363232",
"O c #363333",
"+ c #373535",
"@ c #383434",
"# c #383535",
"$ c #393535",
"% c #3A3636",
"& c #3B3737",
"* c #3B3838",
"= c #3C3838",
"- c #3D3A3A",
"; c #3E3A3A",
": c #3F3B3B",
"> c #3F3C3C",
", c #403C3C",
"< c #413D3D",
"1 c #444040",
"2 c #444141",
"3 c #454141",
"4 c #464242",
"5 c #8C8485",
"6 c #8D8586",
"7 c #92898A",
"8 c #CDC1C3",
"9 c #CEC2C4",
"0 c #FDEEF1",
/* pixels */
"           .$;<1221<;#.           ",
"         O>333333333333>O         ",
"       .,3333333333333333>.       ",
"      @23333333333333333332+      ",
"     &3333333333333333333333=     ",
"    *333333333333333333333333&    ",
"   @33333333333333333333333333+   ",
"  .2333333333333333333333333332.  ",
"  ,3333333333333333333333333333>  ",
" o333333333333333333333333333333O ",
" >333333333333333333333333333333> ",
".33333333333333333333333333333333.",
"$33333333333343333334333333333333#",
";33333333333496333369433333333333-",
"<33333333333350733507333333333333<",
"1333333333333350750733333333333331",
"2333333333333336006333333333333332",
"2333333333333336006333333333333332",
"1333333333333350750733333333333331",
"<33333333333350733507333333333333<",
";33333333333486333369433333333333-",
"$33333333333343333334333333333333#",
".33333333333333333333333333333333.",
" >333333333333333333333333333333: ",
" X333333333333333333333333333333O ",
"  >3333333333333333333333333333:  ",
"  .2333333333333333333333333332.  ",
"   +33333333333333333333333333+   ",
"    &333333333333333333333333&    ",
"     %3333333333333333333333=     ",
"      +23333333333333333332+      ",
"       .>3333333333333333:.       ",
"         o>333333333333:X         ",
"           .#-<1221<-#.           "
};
