/* XPM */
static char *close_pressed[] = {
/* columns rows colors chars-per-pixel */
"34 34 22 1 ",
"  c #41393A",
". c #423A3B",
"X c #443B3D",
"o c #443C3D",
"O c #4D4345",
"+ c #4D4445",
"@ c #574C4E",
"# c #574D4E",
"$ c #574D4F",
"% c #584D4F",
"& c #584E4F",
"* c #584E50",
"= c #5C5153",
"- c #5C5253",
"; c #5D5354",
": c #5E5455",
"> c #9B8A8D",
", c #9C8B8D",
"< c #A08E90",
"1 c #D3BCBF",
"2 c #D3BDC0",
"3 c #FCE0E5",
/* pixels */
"  .+#-;;;;;;;;;;;;;;;;;;;;;;-#O.  ",
" o*;;;;;;;;;;;;;;;;;;;;;;;;;;;;&o ",
".*;;;;;;;;;;;;;;;;;;;;;;;;;;;;;;%.",
"+;;;;;;;;;;;;;;;;;;;;;;;;;;;;;;;;O",
"$;;;;;;;;;;;;;;;;;;;;;;;;;;;;;;;;#",
"=;;;;;;;;;;;;;;;;;;;;;;;;;;;;;;;;=",
";;;;;;;;;;;;;;;;;;;;;;;;;;;;;;;;;;",
";;;;;;;;;;;;;;;;;;;;;;;;;;;;;;;;;;",
";;;;;;;;;;;;;;;;;;;;;;;;;;;;;;;;;;",
";;;;;;;;;;;;;;;;;;;;;;;;;;;;;;;;;;",
";;;;;;;;;;;;;;;;;;;;;;;;;;;;;;;;;;",
";;;;;;;;;;;;;;;;;;;;;;;;;;;;;;;;;;",
";;;;;;;;;;;;;:;;;;;;:;;;;;;;;;;;;;",
";;;;;;;;;;;;:2,;;;;,2:;;;;;;;;;;;;",
";;;;;;;;;;;;;>3<;;>3<;;;;;;;;;;;;;",
";;;;;;;;;;;;;;>3<>3<;;;;;;;;;;;;;;",
";;;;;;;;;;;;;;;,33,;;;;;;;;;;;;;;;",
";;;;;;;;;;;;;;;,33,;;;;;;;;;;;;;;;",
";;;;;;;;;;;;;;>3<>3<;;;;;;;;;;;;;;",
";;;;;;;;;;;;;>3<;;>3<;;;;;;;;;;;;;",
";;;;;;;;;;;;:1,;;;;,2:;;;;;;;;;;;;",
";;;;;;;;;;;;;:;;;;;;:;;;;;;;;;;;;;",
";;;;;;;;;;;;;;;;;;;;;;;;;;;;;;;;;;",
";;;;;;;;;;;;;;;;;;;;;;;;;;;;;;;;;;",
";;;;;;;;;;;;;;;;;;;;;;;;;;;;;;;;;;",
";;;;;;;;;;;;;;;;;;;;;;;;;;;;;;;;;;",
";;;;;;;;;;;;;;;;;;;;;;;;;;;;;;;;;;",
";;;;;;;;;;;;;;;;;;;;;;;;;;;;;;;;;;",
"=;;;;;;;;;;;;;;;;;;;;;;;;;;;;;;;;=",
"#;;;;;;;;;;;;;;;;;;;;;;;;;;;;;;;;@",
"+;;;;;;;;;;;;;;;;;;;;;;;;;;;;;;;;O",
".&;;;;;;;;;;;;;;;;;;;;;;;;;;;;;;%.",
" o%;;;;;;;;;;;;;;;;;;;;;;;;;;;;%X ",
"  .O@=;;;;;;;;;;;;;;;;;;;;;;=@O.  "
};
