/* XPM */
static char *hide_pressed[] = {
/* columns rows colors chars-per-pixel */
"34 34 27 1 ",
"  c #312E2E",
". c #333030",
"X c #343131",
"o c #353131",
"O c #353232",
"+ c #373535",
"@ c #383434",
"# c #383535",
"$ c #3B3838",
"% c #3C3838",
"& c #3C3939",
"* c #3D3939",
"= c #3F3B3B",
"- c #403C3C",
"; c #403D3D",
": c #444040",
"> c #444141",
", c #464141",
"< c #464242",
"1 c #474242",
"2 c #494545",
"3 c #494646",
"4 c #4D4949",
"5 c #4E4A4A",
"6 c #4F4A4A",
"7 c #504B4B",
"8 c #FFF0F3",
/* pixels */
"           .&>346643>&.           ",
"         #1677777777776<@         ",
"       O17777777777777777<O       ",
"      &57777777777777777775%      ",
"     -7777777777777777777777;     ",
"    ;777777777777777777777777-    ",
"   &77777777777777777777777777%   ",
"  O5777777777777777777777777775o  ",
"  17777777777777777777777777777<  ",
" +777777777777777777777777777777@ ",
" 1777777777777777777777777777777< ",
".67777777777777777777777777777776.",
"*77777777777777777777777777777777%",
">77777777777777777777777777777777:",
"3777777777777777777777777777777772",
"4777777777777777777777777777777774",
"6777777777777777777777777777777776",
"6777777777777777777777777777777776",
"4777777777777777777777777777777774",
"3777777777777888888887777777777772",
":77777777777777777777777777777777:",
"&77777777777777777777777777777777%",
".67777777777777777777777777777776.",
" <777777777777777777777777777777< ",
" +777777777777777777777777777777@ ",
"  17777777777777777777777777777<  ",
"  O5777777777777777777777777775X  ",
"   %77777777777777777777777777$   ",
"    -777777777777777777777777-    ",
"     =7777777777777777777777;     ",
"      %57777777777777777775$      ",
"       o<7777777777777777,X       ",
"         @<677777777776<+         ",
"           .%:346642:%.           "
};
