/* XPM */
static char *maximize_prelight[] = {
/* columns rows colors chars-per-pixel */
"34 34 12 1 ",
"  c #41393A",
". c #423A3B",
"X c #433A3B",
"o c #494041",
"O c #484042",
"+ c #4F4648",
"@ c #504647",
"# c #504747",
"$ c #504748",
"% c #53494B",
"& c #54494B",
"* c #FEE2E7",
/* pixels */
"  .o@%&&&&&&&&&&&&&&&&&&&&&&%@o.  ",
" X$&&&&&&&&&&&&&&&&&&&&&&&&&&&&$X ",
".$&&&&&&&&&&&&&&&&&&&&&&&&&&&&&&$.",
"o&&&&&&&&&&&&&&&&&&&&&&&&&&&&&&&&O",
"@&&&&&&&&&&&&&&&&&&&&&&&&&&&&&&&&@",
"%&&&&&&&&&&&&&&&&&&&&&&&&&&&&&&&&%",
"&&&&&&&&&&&&&&&&&&&&&&&&&&&&&&&&&&",
"&&&&&&&&&&&&&&&&&&&&&&&&&&&&&&&&&&",
"&&&&&&&&&&&&&&&&&&&&&&&&&&&&&&&&&&",
"&&&&&&&&&&&&&&&&&&&&&&&&&&&&&&&&&&",
"&&&&&&&&&&&&&&&&&&&&&&&&&&&&&&&&&&",
"&&&&&&&&&&&&&&&&&&&&&&&&&&&&&&&&&&",
"&&&&&&&&&&&&&&&&&&&&&&&&&&&&&&&&&&",
"&&&&&&&&&&&&&********&&&&&&&&&&&&&",
"&&&&&&&&&&&&&*&&&&&&*&&&&&&&&&&&&&",
"&&&&&&&&&&&&&*&&&&&&*&&&&&&&&&&&&&",
"&&&&&&&&&&&&&*&&&&&&*&&&&&&&&&&&&&",
"&&&&&&&&&&&&&*&&&&&&*&&&&&&&&&&&&&",
"&&&&&&&&&&&&&*&&&&&&*&&&&&&&&&&&&&",
"&&&&&&&&&&&&&*&&&&&&*&&&&&&&&&&&&&",
"&&&&&&&&&&&&&********&&&&&&&&&&&&&",
"&&&&&&&&&&&&&&&&&&&&&&&&&&&&&&&&&&",
"&&&&&&&&&&&&&&&&&&&&&&&&&&&&&&&&&&",
"&&&&&&&&&&&&&&&&&&&&&&&&&&&&&&&&&&",
"&&&&&&&&&&&&&&&&&&&&&&&&&&&&&&&&&&",
"&&&&&&&&&&&&&&&&&&&&&&&&&&&&&&&&&&",
"&&&&&&&&&&&&&&&&&&&&&&&&&&&&&&&&&&",
"&&&&&&&&&&&&&&&&&&&&&&&&&&&&&&&&&&",
"%&&&&&&&&&&&&&&&&&&&&&&&&&&&&&&&&%",
"@&&&&&&&&&&&&&&&&&&&&&&&&&&&&&&&&+",
"o&&&&&&&&&&&&&&&&&&&&&&&&&&&&&&&&O",
".$&&&&&&&&&&&&&&&&&&&&&&&&&&&&&&#.",
" X$&&&&&&&&&&&&&&&&&&&&&&&&&&&&#X ",
"  .O+%&&&&&&&&&&&&&&&&&&&&&&%+O.  "
};
