/* XPM */
static char *bottom_left_active[] = {
/* columns rows colors chars-per-pixel */
"24 24 2 1 ",
"  c None",
". c #F3516D",
/* pixels */
"...                     ",
"...                     ",
"...                     ",
"...                     ",
"...                     ",
"...                     ",
"...                     ",
"...                     ",
"...                     ",
"...                     ",
"...                     ",
"...                     ",
"...                     ",
"...                     ",
"...                     ",
"...                     ",
"...                     ",
"...                     ",
"...                     ",
"...                     ",
"...                     ",
"........................",
"........................",
"........................"
};
