/* XPM */
static char *close_pressed[] = {
/* columns rows colors chars-per-pixel */
"34 34 28 1 ",
"  c #020101",
". c #361218",
"X c #371219",
"o c #7A2937",
"O c #7F2A39",
"+ c #CD445C",
"@ c #CF455D",
"# c #D0455D",
"$ c #D1465E",
"% c #D2465E",
"& c #D64760",
"* c #D94861",
"= c #DA4962",
"- c #DC4963",
"; c #DD4A63",
": c #E14B65",
"> c #E24B65",
", c #E34C66",
"< c #E54C67",
"1 c #E64D67",
"2 c #E74D67",
"3 c #E84D68",
"4 c #EA4E69",
"5 c #EB4E6A",
"6 c #EE4F6B",
"7 c #EF506B",
"8 c #F0506C",
"9 c #F3516D",
/* pixels */
"9999999999981-&%##%&-1899999999999",
"9999999994*#@@@@@@@@@@#=4999999999",
"99999996*@@@@@@@@@@@@@@@@=69999999",
"9999992$@@@@@@@@@@@@@@@@@@$2999999",
"99999>@@@@@@@@@@@@@@@@@@@@@@:99999",
"9999:@@@@@@@@@@@@@@@@@@@@@@@@>9999",
"9992@@@@@@@@@@@@@@@@@@@@@@@@@@2999",
"996$@@@@@@@@@@@@@@@@@@@@@@@@@@$699",
"99*@@@@@@@@@@@@@@@@@@@@@@@@@@@@=99",
"95@@@@@@@@@@@@@@@@@@@@@@@@@@@@@@49",
"9*@@@@@@@@@@@@@@@@@@@@@@@@@@@@@@=9",
"8#@@@@@@@@@@@@@@@@@@@@@@@@@@@@@@#8",
"<@@@@@@@@@@@@+@@@@@@+@@@@@@@@@@@@1",
"-@@@@@@@@@@@+.O@@@@O.+@@@@@@@@@@@-",
"&@@@@@@@@@@@@O o@@O o@@@@@@@@@@@@&",
"%@@@@@@@@@@@@@O oO o@@@@@@@@@@@@@%",
"#@@@@@@@@@@@@@@O  O@@@@@@@@@@@@@@#",
"#@@@@@@@@@@@@@@O  O@@@@@@@@@@@@@@#",
"%@@@@@@@@@@@@@O oO o@@@@@@@@@@@@@%",
"&@@@@@@@@@@@@O o@@O o@@@@@@@@@@@@&",
"-@@@@@@@@@@@+XO@@@@O.+@@@@@@@@@@@;",
"1@@@@@@@@@@@@+@@@@@@+@@@@@@@@@@@@1",
"8#@@@@@@@@@@@@@@@@@@@@@@@@@@@@@@#8",
"9=@@@@@@@@@@@@@@@@@@@@@@@@@@@@@@=9",
"95@@@@@@@@@@@@@@@@@@@@@@@@@@@@@@49",
"99*@@@@@@@@@@@@@@@@@@@@@@@@@@@@=99",
"996$@@@@@@@@@@@@@@@@@@@@@@@@@@$799",
"9992@@@@@@@@@@@@@@@@@@@@@@@@@@3999",
"9999>@@@@@@@@@@@@@@@@@@@@@@@@>9999",
"99999,@@@@@@@@@@@@@@@@@@@@@@:99999",
"9999992$@@@@@@@@@@@@@@@@@@$3999999",
"99999996=@@@@@@@@@@@@@@@@=79999999",
"9999999994=#@@@@@@@@@@#=5999999999",
"9999999999981-&%##%&-1899999999999"
};
