/* XPM */
static char *close_pressed[] = {
/* columns rows colors chars-per-pixel */
"34 34 14 1 ",
"  c #020101",
". c #361218",
"X c #371219",
"o c #7A2937",
"O c #7F2A39",
"+ c #CD445C",
"@ c #CF455D",
"# c #D1465E",
"$ c #D54760",
"% c #D64760",
"& c #E44C66",
"* c #EF506B",
"= c #F2516D",
"- c #F3516D",
/* pixels */
"--=&%#@@@@@@@@@@@@@@@@@@@@@@#%&=--",
"-*$@@@@@@@@@@@@@@@@@@@@@@@@@@@@$*-",
"=$@@@@@@@@@@@@@@@@@@@@@@@@@@@@@@$=",
"&@@@@@@@@@@@@@@@@@@@@@@@@@@@@@@@@&",
"%@@@@@@@@@@@@@@@@@@@@@@@@@@@@@@@@%",
"#@@@@@@@@@@@@@@@@@@@@@@@@@@@@@@@@#",
"@@@@@@@@@@@@@@@@@@@@@@@@@@@@@@@@@@",
"@@@@@@@@@@@@@@@@@@@@@@@@@@@@@@@@@@",
"@@@@@@@@@@@@@@@@@@@@@@@@@@@@@@@@@@",
"@@@@@@@@@@@@@@@@@@@@@@@@@@@@@@@@@@",
"@@@@@@@@@@@@@@@@@@@@@@@@@@@@@@@@@@",
"@@@@@@@@@@@@@@@@@@@@@@@@@@@@@@@@@@",
"@@@@@@@@@@@@@+@@@@@@+@@@@@@@@@@@@@",
"@@@@@@@@@@@@+.O@@@@O.+@@@@@@@@@@@@",
"@@@@@@@@@@@@@O o@@O o@@@@@@@@@@@@@",
"@@@@@@@@@@@@@@O oO o@@@@@@@@@@@@@@",
"@@@@@@@@@@@@@@@O  O@@@@@@@@@@@@@@@",
"@@@@@@@@@@@@@@@O  O@@@@@@@@@@@@@@@",
"@@@@@@@@@@@@@@O oO o@@@@@@@@@@@@@@",
"@@@@@@@@@@@@@O o@@O o@@@@@@@@@@@@@",
"@@@@@@@@@@@@+XO@@@@O.+@@@@@@@@@@@@",
"@@@@@@@@@@@@@+@@@@@@+@@@@@@@@@@@@@",
"@@@@@@@@@@@@@@@@@@@@@@@@@@@@@@@@@@",
"@@@@@@@@@@@@@@@@@@@@@@@@@@@@@@@@@@",
"@@@@@@@@@@@@@@@@@@@@@@@@@@@@@@@@@@",
"@@@@@@@@@@@@@@@@@@@@@@@@@@@@@@@@@@",
"@@@@@@@@@@@@@@@@@@@@@@@@@@@@@@@@@@",
"@@@@@@@@@@@@@@@@@@@@@@@@@@@@@@@@@@",
"#@@@@@@@@@@@@@@@@@@@@@@@@@@@@@@@@#",
"%@@@@@@@@@@@@@@@@@@@@@@@@@@@@@@@@%",
"&@@@@@@@@@@@@@@@@@@@@@@@@@@@@@@@@&",
"=$@@@@@@@@@@@@@@@@@@@@@@@@@@@@@@$=",
"-*$@@@@@@@@@@@@@@@@@@@@@@@@@@@@$*-",
"--=&%#@@@@@@@@@@@@@@@@@@@@@@#%&=--"
};
