/* XPM */
static char *hide_pressed[] = {
/* columns rows colors chars-per-pixel */
"34 34 23 1 ",
"  c black",
". c #CF455D",
"X c #D0455D",
"o c #D1465E",
"O c #D2465E",
"+ c #D64760",
"@ c #D94861",
"# c #DA4962",
"$ c #DC4963",
"% c #DD4A63",
"& c #E14B65",
"* c #E24B65",
"= c #E34C66",
"- c #E54C67",
"; c #E64D67",
": c #E74D67",
"> c #E84D68",
", c #EA4E69",
"< c #EB4E6A",
"1 c #EE4F6B",
"2 c #EF506B",
"3 c #F0506C",
"4 c #F3516D",
/* pixels */
"444444444443;$+OXXO+$;344444444444",
"444444444,@X..........X#,444444444",
"44444441@................#14444444",
"444444:o..................o:444444",
"44444*......................&44444",
"4444&........................*4444",
"444:..........................:444",
"441o..........................o144",
"44@............................#44",
"4<..............................,4",
"4@..............................#4",
"3X..............................X3",
"-................................;",
"$................................$",
"+................................+",
"O................................O",
"X................................X",
"X................................X",
"O................................O",
"+............        ............+",
"$................................%",
";................................;",
"3X..............................X3",
"4#..............................#4",
"4<..............................,4",
"44@............................#44",
"441o..........................o244",
"444:..........................>444",
"4444*........................*4444",
"44444=......................&44444",
"444444:o..................o>444444",
"44444441#................#24444444",
"444444444,#X..........X#<444444444",
"444444444443;$+OXXO+$;344444444444"
};
