/* XPM */
static char *top_left_active[] = {
/* columns rows colors chars-per-pixel */
"8 42 5 1 ",
"  c None",
". c #F3516D",
"X c #F4516D",
"o c #F4526C",
"O c #F4526D",
/* pixels */
"    oO..",
"  ......",
" .......",
" .......",
"X.......",
"........",
"........",
"........",
"........",
"........",
"........",
"........",
"........",
"........",
"........",
"........",
"........",
"........",
"........",
"........",
"........",
"........",
"........",
"........",
"........",
"........",
"........",
"........",
"........",
"........",
"........",
"........",
"........",
"........",
"........",
"........",
"........",
"........",
"........",
"........",
"........",
"........"
};
