/* XPM */
static char *top_right_inactive[] = {
/* columns rows colors chars-per-pixel */
"8 42 6 1 ",
"  c None",
". c #F39FAC",
"X c #F39EAD",
"o c #F39FAD",
"O c #F49FAD",
"+ c #F3A0AD",
/* pixels */
"ooOO    ",
"ooooo.  ",
"ooooooX ",
"ooooooo ",
"oooooooo",
"ooooooo+",
"oooooooo",
"oooooooo",
"oooooooo",
"oooooooo",
"oooooooo",
"oooooooo",
"oooooooo",
"oooooooo",
"oooooooo",
"oooooooo",
"oooooooo",
"oooooooo",
"oooooooo",
"oooooooo",
"oooooooo",
"oooooooo",
"oooooooo",
"oooooooo",
"oooooooo",
"oooooooo",
"oooooooo",
"oooooooo",
"oooooooo",
"oooooooo",
"oooooooo",
"oooooooo",
"oooooooo",
"oooooooo",
"oooooooo",
"oooooooo",
"oooooooo",
"oooooooo",
"oooooooo",
"oooooooo",
"oooooooo",
"oooooooo"
};
