/* XPM */
static char *top_right_active[] = {
/* columns rows colors chars-per-pixel */
"8 42 6 1 ",
"  c None",
". c #F3516C",
"X c #F3506D",
"o c #F3516D",
"O c #F4526C",
"+ c #F4526D",
/* pixels */
"oo+O    ",
"ooooo.  ",
"ooooooX ",
"ooooooo ",
"oooooooo",
"oooooooo",
"oooooooo",
"oooooooo",
"oooooooo",
"oooooooo",
"oooooooo",
"oooooooo",
"oooooooo",
"oooooooo",
"oooooooo",
"oooooooo",
"oooooooo",
"oooooooo",
"oooooooo",
"oooooooo",
"oooooooo",
"oooooooo",
"oooooooo",
"oooooooo",
"oooooooo",
"oooooooo",
"oooooooo",
"oooooooo",
"oooooooo",
"oooooooo",
"oooooooo",
"oooooooo",
"oooooooo",
"oooooooo",
"oooooooo",
"oooooooo",
"oooooooo",
"oooooooo",
"oooooooo",
"oooooooo",
"oooooooo",
"oooooooo"
};
