/* XPM */
static char *close_inactive[] = {
/* columns rows colors chars-per-pixel */
"34 34 7 1 ",
"  c #90666D",
". c #A9878C",
"X c #AA878C",
"o c #C9B1B6",
"O c #CCB5B9",
"+ c #F1E7E9",
"@ c #F2E8EA",
/* pixels */
"@@@@@@@@@@@@@@@@@@@@@@@@@@@@@@@@@@",
"@@@@@@@@@@@@@@@@@@@@@@@@@@@@@@@@@@",
"@@@@@@@@@@@@@@@@@@@@@@@@@@@@@@@@@@",
"@@@@@@@@@@@@@@@@@@@@@@@@@@@@@@@@@@",
"@@@@@@@@@@@@@@@@@@@@@@@@@@@@@@@@@@",
"@@@@@@@@@@@@@@@@@@@@@@@@@@@@@@@@@@",
"@@@@@@@@@@@@@@@@@@@@@@@@@@@@@@@@@@",
"@@@@@@@@@@@@@@@@@@@@@@@@@@@@@@@@@@",
"@@@@@@@@@@@@@@@@@@@@@@@@@@@@@@@@@@",
"@@@@@@@@@@@@@@@@@@@@@@@@@@@@@@@@@@",
"@@@@@@@@@@@@@@@@@@@@@@@@@@@@@@@@@@",
"@@@@@@@@@@@@@@@@@@@@@@@@@@@@@@@@@@",
"@@@@@@@@@@@@@+@@@@@@+@@@@@@@@@@@@@",
"@@@@@@@@@@@@+.O@@@@O.+@@@@@@@@@@@@",
"@@@@@@@@@@@@@O o@@O o@@@@@@@@@@@@@",
"@@@@@@@@@@@@@@O oO o@@@@@@@@@@@@@@",
"@@@@@@@@@@@@@@@O  O@@@@@@@@@@@@@@@",
"@@@@@@@@@@@@@@@O  O@@@@@@@@@@@@@@@",
"@@@@@@@@@@@@@@O oO o@@@@@@@@@@@@@@",
"@@@@@@@@@@@@@O o@@O o@@@@@@@@@@@@@",
"@@@@@@@@@@@@+XO@@@@O.+@@@@@@@@@@@@",
"@@@@@@@@@@@@@+@@@@@@+@@@@@@@@@@@@@",
"@@@@@@@@@@@@@@@@@@@@@@@@@@@@@@@@@@",
"@@@@@@@@@@@@@@@@@@@@@@@@@@@@@@@@@@",
"@@@@@@@@@@@@@@@@@@@@@@@@@@@@@@@@@@",
"@@@@@@@@@@@@@@@@@@@@@@@@@@@@@@@@@@",
"@@@@@@@@@@@@@@@@@@@@@@@@@@@@@@@@@@",
"@@@@@@@@@@@@@@@@@@@@@@@@@@@@@@@@@@",
"@@@@@@@@@@@@@@@@@@@@@@@@@@@@@@@@@@",
"@@@@@@@@@@@@@@@@@@@@@@@@@@@@@@@@@@",
"@@@@@@@@@@@@@@@@@@@@@@@@@@@@@@@@@@",
"@@@@@@@@@@@@@@@@@@@@@@@@@@@@@@@@@@",
"@@@@@@@@@@@@@@@@@@@@@@@@@@@@@@@@@@",
"@@@@@@@@@@@@@@@@@@@@@@@@@@@@@@@@@@"
};
