/* XPM */
static char *maximize_pressed[] = {
/* columns rows colors chars-per-pixel */
"34 34 28 1 ",
"  c #32161B",
". c #CDC2C3",
"X c #CDC2C4",
"o c #CEC3C5",
"O c #CEC4C6",
"+ c #D2C8CA",
"@ c #D5CACC",
"# c #D4CBCD",
"$ c #D5CBCD",
"% c #D6CDCE",
"& c #D6CDCF",
"* c #D7CECF",
"= c #DAD0D2",
"- c #DAD1D2",
"; c #DBD1D3",
": c #DBD2D4",
"> c #DCD4D6",
", c #DDD5D6",
"< c #DDD5D7",
"1 c #DED6D7",
"2 c #DFD6D7",
"3 c #E1D9DA",
"4 c #E2DADB",
"5 c #E3DCDD",
"6 c #E3DCDE",
"7 c #E4DCDD",
"8 c #E5DDDE",
"9 c #E7E0E1",
/* pixels */
"999999999998<&+OXXO+&<899999999999",
"9999999993@X..........X$3999999999",
"99999996@................$69999999",
"9999991o..................o1999999",
"99999;......................-99999",
"9999=........................;9999",
"9991..........................1999",
"996o..........................o599",
"99@............................$99",
"94..............................39",
"9@..............................$9",
"8X..............................X8",
">................................,",
"&............        ............%",
"+............ ...... ............+",
"O............ ...... ............O",
"X............ ...... ............X",
"X............ ...... ............X",
"O............ ...... ............O",
"+............ ...... ............+",
"%............        ............*",
"<................................,",
"8X..............................X8",
"9$..............................#9",
"94..............................39",
"99@............................#99",
"996o..........................o799",
"9991..........................2999",
"9999;........................;9999",
"99999:......................-99999",
"9999991o..................o2999999",
"99999995$................#79999999",
"9999999993$X..........X#4999999999",
"999999999998,%+OXXO+%,899999999999"
};
