/* XPM */
static char *maximize_prelight[] = {
/* columns rows colors chars-per-pixel */
"34 34 19 1 ",
"  c #32161B",
". c #D5CCCD",
"X c #D6CDCE",
"o c #D7CECF",
"O c #D9D0D1",
"+ c #DBD1D2",
"@ c #DBD2D3",
"# c #DCD3D4",
"$ c #DCD4D5",
"% c #DED6D7",
"& c #DFD7D8",
"* c #E0D8D9",
"= c #E1D9DA",
"- c #E2DADB",
"; c #E3DBDC",
": c #E3DCDD",
"> c #E5DDDE",
", c #E5DEDF",
"< c #E7E0E1",
/* pixels */
"<<<<<<<<<<<,*#OoXXoO#=,<<<<<<<<<<<",
"<<<<<<<<<;@............@;<<<<<<<<<",
"<<<<<<<>+................@><<<<<<<",
"<<<<<<=X..................X-<<<<<<",
"<<<<<%......................%<<<<<",
"<<<<%........................%<<<<",
"<<<=..........................-<<<",
"<<>X..........................X><<",
"<<+............................@<<",
"<;..............................;<",
"<@..............................@<",
",................................,",
"*................................=",
"#............        ............$",
"O............ ...... ............O",
"o............ ...... ............o",
"X............ ...... ............X",
"X............ ...... ............X",
"o............ ...... ............o",
"O............ ...... ............O",
"#............        ............$",
"*................................=",
",................................,",
"<@..............................@<",
"<:..............................;<",
"<<@............................@<<",
"<<>X..........................X><<",
"<<<-..........................-<<<",
"<<<<%........................%<<<<",
"<<<<<&......................%<<<<<",
"<<<<<<-X..................X-<<<<<<",
"<<<<<<<>@................@><<<<<<<",
"<<<<<<<<<;@............@:<<<<<<<<<",
"<<<<<<<<<<<,=$OoXXoO$=,<<<<<<<<<<<"
};
